<?xml version="1.0" encoding="UTF-8"?>
<svg id="_Слой_1" data-name="Слой 1" xmlns="http://www.w3.org/2000/svg" viewBox="0 0 158.97 21.02">
  <defs>
    <style>
      .cls-1 {
        fill: #00616f;
      }

      .cls-2 {
        fill: #003a4c;
      }

      .cls-3 {
        fill: #00a6a7;
      }

      .cls-4 {
        fill: #008d92;
      }

      .cls-5 {
        fill: #004f5e;
      }

      .cls-6 {
        fill: #00767f;
      }
    </style>
  </defs>
  <g>
    <g>
      <path class="cls-2" d="M26.68,5.38h16.64v4.8h-5.63v10.85h-5.38v-10.85h-5.63v-4.8Z"/>
      <path class="cls-2" d="M58.96,11.34v3.71h-9.05v1.71h9.82v4.25h-15.14V5.38h15.04v4.25h-9.72v1.71h9.05Z"/>
      <path class="cls-2" d="M61.95,21.02V5.38h6.95l6.09,9.45V5.38h5.21v15.64h-6.74l-6.3-9.78v9.78h-5.21Z"/>
      <path class="cls-2" d="M96.65,11.34v3.71h-9.05v1.71h9.82v4.25h-15.14V5.38h15.04v4.25h-9.72v1.71h9.05Z"/>
      <path class="cls-2" d="M99.63,21.02V5.38h9.8c1.25,0,2.35.22,3.28.66.94.44,1.67,1.05,2.19,1.82.52.78.78,1.7.78,2.75s-.26,1.94-.78,2.72c-.52.79-1.25,1.39-2.18,1.82-.15.07-.3.13-.44.19l4.03,5.67h-6.15l-3.55-5.21h-1.61v5.21h-5.38ZM105.01,12.07h3.59c.53,0,.94-.12,1.23-.38.29-.25.44-.61.44-1.08s-.15-.84-.44-1.08c-.29-.25-.7-.38-1.23-.38h-3.59v2.92Z"/>
      <path class="cls-2" d="M142.22,5.38v4.48h-9.09v1.63h8.68v4.48h-8.68v5.05h-5.38V5.38h14.47Z"/>
      <path class="cls-2" d="M158.19,11.34v3.71h-9.05v1.71h9.82v4.25h-15.14V5.38h15.04v4.25h-9.72v1.71h9.05Z"/>
    </g>
    <g>
      <path class="cls-2" d="M125.31,21.02h-6.88v-1.43l4.63-.7-4.63-.81v-1.35h6.88v.97h-4.27l4.27.63v1.04l-4.27.68h4.27v.97Z"/>
      <path class="cls-2" d="M118.43,15.92v-.97h6.14c.06,0,.11-.02.15-.07.04-.05.06-.1.06-.16s-.02-.11-.06-.16-.09-.07-.15-.07h-6.14v-.97h5.94c.45,0,.73.08.86.24.13.16.19.37.19.64v.66c0,.27-.05.47-.16.6-.11.13-.23.21-.37.24-.14.03-.31.04-.51.04h-5.94Z"/>
      <path class="cls-2" d="M122.92,12.76v-.97h1.67c.05,0,.1-.02.13-.07.04-.04.05-.1.05-.15,0-.15-.06-.23-.19-.23h-1.54c-.08,0-.15.01-.2.04-.05.02-.1.06-.14.09-.04.04-.08.08-.14.14l-.87.79c-.13.12-.23.2-.3.24-.07.05-.14.07-.21.09-.07.01-.18.02-.33.02h-1.48s-.08,0-.14,0-.11,0-.15,0c-.24,0-.43-.05-.57-.17s-.21-.34-.21-.69v-.59c0-.28.05-.48.14-.62s.22-.23.36-.26c.15-.04.34-.06.57-.06h1.2v.98h-1.46c-.05,0-.1.02-.14.08s-.05.1-.05.14c0,.05.02.1.05.15.03.05.08.07.14.07h1.41c.14,0,.25-.01.32-.03.07-.02.16-.07.27-.16l.93-.85s.06-.06.14-.14c.08-.09.15-.14.21-.18.06-.03.15-.05.27-.05h1.69c.27,0,.47.01.61.04.14.03.24.07.3.14.06.07.1.16.12.27.02.11.02.28.02.51v.57c0,.18-.02.33-.06.45-.04.12-.14.22-.29.3-.15.08-.39.12-.7.12h-1.44Z"/>
      <path class="cls-2" d="M125.31,9.61h-6.88v-.97h6.88v.97Z"/>
      <path class="cls-2" d="M122.9,6.4v-.97h1.5c.18,0,.35.02.49.05.14.03.27.11.37.24.11.13.16.32.16.58v.66c0,.18-.02.32-.05.44-.04.12-.13.22-.28.3s-.38.13-.69.13h-4.96c-.21,0-.38-.02-.52-.04-.14-.03-.25-.11-.35-.23s-.15-.32-.15-.59v-.66c0-.26.05-.45.15-.58s.22-.21.36-.25c.14-.04.31-.05.51-.05h1.33v.97h-1.58c-.07,0-.12.03-.16.08-.04.05-.06.11-.06.16,0,.06.02.11.07.15s.1.07.15.07h5.4c.05,0,.1-.02.15-.06.04-.04.07-.09.07-.16,0-.06-.02-.12-.06-.17s-.09-.07-.15-.07h-1.67Z"/>
    </g>
  </g>
  <g>
    <circle class="cls-6" cx="19.76" cy="8.66" r="1.25"/>
    <circle class="cls-1" cx="19.76" cy="12.36" r="1.25"/>
    <circle class="cls-5" cx="19.76" cy="16.06" r="1.25"/>
    <circle class="cls-2" cx="19.76" cy="19.76" r="1.25"/>
    <circle class="cls-2" cx="1.25" cy="19.76" r="1.25"/>
    <circle class="cls-2" cx="4.96" cy="19.76" r="1.25"/>
    <circle class="cls-2" cx="8.66" cy="19.76" r="1.25"/>
    <circle class="cls-2" cx="12.36" cy="19.76" r="1.25"/>
    <circle class="cls-2" cx="16.06" cy="19.76" r="1.25"/>
    <circle class="cls-5" cx="1.25" cy="16.06" r="1.25"/>
    <circle class="cls-5" cx="4.96" cy="16.06" r="1.25"/>
    <circle class="cls-5" cx="8.66" cy="16.06" r="1.25"/>
    <circle class="cls-5" cx="12.36" cy="16.06" r="1.25"/>
    <circle class="cls-5" cx="16.06" cy="16.06" r="1.25"/>
    <circle class="cls-1" cx="1.25" cy="12.36" r="1.25"/>
    <circle class="cls-1" cx="8.66" cy="12.36" r="1.25"/>
    <circle class="cls-1" cx="12.36" cy="12.36" r="1.25"/>
    <circle class="cls-1" cx="16.06" cy="12.36" r="1.25"/>
    <circle class="cls-6" cx="1.25" cy="8.66" r="1.25"/>
    <circle class="cls-6" cx="8.66" cy="8.66" r="1.25"/>
    <circle class="cls-6" cx="12.36" cy="8.66" r="1.25"/>
    <circle class="cls-4" cx="8.66" cy="4.96" r="1.25"/>
    <circle class="cls-4" cx="12.36" cy="4.96" r="1.25"/>
    <circle class="cls-3" cx="8.66" cy="1.25" r="1.25"/>
  </g>
</svg>